<svg version="1.1" id="I" xmlns="http://www.w3.org/2000/svg" x="0" y="0" viewBox="0 0 100 30" xml:space="preserve" fill="#fff"><style>.st1{fill:none;stroke:#fff;stroke-width:.3;stroke-miterlimit:10}</style><g stroke-width="0"><path d="M4.8 8c.7 0 1.4-.1 2.1-.1.7 0 1.4.2 1.9.5s.8.8.8 1.5c0 .5-.1.9-.4 1.3-.3.4-.6.7-1 .9.6.2 1.2.5 1.6 1 .4.5.6 1 .6 1.5 0 .8-.3 1.4-.8 1.8-.5.4-1.3.6-2.2.6s-1.8 0-2.6-.1V8zm4.1 1.9c0-.5-.2-.8-.6-1.1-.4-.2-.8-.4-1.3-.4s-1 0-1.6.1V12h.7c.3 0 .8 0 1.4.1.4-.2.7-.5 1-.9.3-.4.4-.9.4-1.3zm.2 6.1c.4-.3.6-.8.6-1.3s-.2-1-.6-1.4c-.4-.4-1-.7-1.7-.8-.3-.1-.7-.1-1.1-.1h-.9v4c.4 0 1.1.1 2.1.1.6.1 1.2-.1 1.6-.5zM13.5 14.2 12.2 17h-.6l3.6-8.3h.4l3.7 8.3h-.7l-1.3-2.8h-3.8zm1.9-4.5c-.1.4-.3.7-.4.9l-1.3 3h3.4l-1.3-3c-.2-.4-.4-.7-.4-.9zM27.6 16.6c-.6.4-1.6.6-2.7.6s-2.2-.4-3.1-1.2c-.9-.8-1.4-1.8-1.4-3s.4-2.2 1.2-3c.8-.8 1.8-1.2 3.1-1.2 1 0 2 .1 3 .4l-.2.5c-.9-.3-1.9-.4-2.9-.4s-1.8.4-2.5 1.1c-.7.7-1 1.6-1 2.6s.4 1.9 1.2 2.6c.8.7 1.7 1.1 2.7 1.1 1 0 1.9-.1 2.6-.4v.3zM36.6 16.6c-.7.4-1.6.5-2.8.5s-2.2-.4-3.1-1.2c-.9-.8-1.4-1.8-1.4-3s.4-2.2 1.2-3c.8-.8 1.8-1.2 3.1-1.2 1 0 2 .1 3 .4l-.2.5c-.9-.3-1.9-.4-2.9-.4s-1.8.4-2.5 1.1c-.7.7-1 1.6-1 2.6s.4 1.9 1.2 2.6c.8.7 1.7 1.1 2.7 1.1 1 0 1.9-.1 2.6-.4l.1.4zM39.2 14.2 38 17h-.6L41 8.8h.4L45 17h-.7L43 14.2h-3.8zm2-4.5c-.1.4-.3.7-.4.9l-1.3 3h3.4l-1.3-3c-.2-.4-.4-.7-.4-.9z"/></g><g stroke-width="0"><path d="M51.3 23.4h-.2l-1.3-3.3c-.1-.1-.1-.3-.2-.5v.5l-.5 3.5h-.3l.7-4.7h.2l1.3 3.4c.1.3.2.4.2.5 0-.1.1-.3.2-.4l1.5-3.5h.2l.7 4.7h-.3l-.5-3.5v-.5l-.2.5-1.5 3.3zM55.1 22.1l-.6 1.6h-.3L56 19h.2l1.8 4.7h-.3l-.7-1.6h-1.9zm1-2.6c-.1.2-.1.4-.2.5l-.7 1.7h1.7l-.7-1.7c0-.2-.1-.4-.1-.5zM58.9 23.7V19h.1l2.8 3.5c.1.1.2.2.3.4.1.1.1.2.1.2V19h.3v4.7h-.1l-2.9-3.6-.4-.5v4.1h-.2zM64.4 22.1l-.6 1.6h-.3l1.8-4.7h.2l1.8 4.7H67l-.6-1.6h-2zm.9-2.6c-.1.2-.1.4-.2.5l-.7 1.7h1.7l-.7-1.7c0-.2 0-.4-.1-.5zM69.9 19.2c-.5 0-.9.2-1.2.6-.3.4-.5.9-.5 1.5s.2 1.1.6 1.5.8.6 1.3.6.9-.1 1.2-.2v-1.9h.3v2.1c-.3.2-.8.3-1.5.3s-1.2-.2-1.6-.7c-.4-.5-.7-1-.7-1.7s.2-1.2.6-1.7c.4-.5.9-.7 1.5-.7.5 0 1 .1 1.5.3l-.1.3c-.4-.2-.9-.3-1.4-.3zM73 23.7V19h2v.3h-1.7V21h1.5v.3h-1.5v2.1h1.8v.3H73zM78.3 23.4h-.2l-1.3-3.3c-.1-.1-.1-.3-.2-.5v.5l-.5 3.5h-.3l.7-4.7h.2l1.3 3.4c.1.3.2.4.2.5 0-.1.1-.3.2-.4l1.5-3.5h.2l.7 4.7h-.3l-.5-3.5v-.5l-.2.5-1.5 3.3zM81.9 23.7V19h2v.3h-1.7V21h1.5v.3h-1.5v2.1H84v.3h-2.1zM85.2 23.7V19h.1l2.8 3.5c.1.1.2.2.3.4.1.1.1.2.1.2V19h.3v4.7h-.1l-2.9-3.6-.4-.5v4.1h-.2zM91.3 19.3h-1.5V19H93v.3h-1.5v4.4h-.3v-4.4z"/></g><path class="st1" d="M4.8 21.6h40.3"/><g stroke-width="0"><path d="M53.7 16.6h-.4l-2.5-5.8c-.1-.2-.2-.5-.3-.8v.4c0 .1 0 .3-.1.3l-1 6.2h-.6l1.4-8.3h.4l2.7 6.1c.2.5.3.8.3.8l.4-.8 3-6.1h.4l1.3 8.3H58l-1-6.2V10l-.4.8-2.9 5.8zM64.8 17.2c-1.2 0-2.3-.4-3.1-1.2-.8-.8-1.3-1.8-1.3-3s.4-2.2 1.3-3c.8-.8 1.9-1.2 3.1-1.2 1.2 0 2.3.4 3.1 1.2.8.8 1.3 1.8 1.3 3s-.4 2.2-1.3 3c-.8.7-1.8 1.2-3.1 1.2zm0-8c-1.1 0-2 .4-2.7 1.1-.7.7-1.1 1.6-1.1 2.6s.4 1.9 1.1 2.6c.7.7 1.6 1.1 2.7 1.1s2-.4 2.7-1.1c.7-.7 1.1-1.6 1.1-2.6s-.4-1.9-1.1-2.6-1.6-1.1-2.7-1.1zM74.4 8.7c1.3 0 2.5.4 3.4 1.2.9.8 1.3 1.8 1.3 3.2 0 1.3-.4 2.3-1.2 3-.8.7-1.9 1-3.2 1-.9 0-1.8 0-2.8-.1V8.8c.7 0 1.5-.1 2.5-.1zm.3 7.9c1.1 0 2.1-.3 2.8-.9.7-.6 1-1.5 1-2.6s-.4-2.1-1.2-2.8c-.8-.7-1.7-1-2.9-1-.8 0-1.4 0-1.9.1v7.2h2.2zM81.8 17V8.8h4.1v.5h-3.4v3h3.1v.5h-3.1v3.7H86v.5h-4.2zM88.5 17V8.8h.6v7.7h4v.5h-4.6z"/></g><path class="st1" d="M96.7 23.9v-19M77.6 5h19"/></svg>